# xmcd CD database file
#
# Track frame offsets:
#	150
#	15789
#	30580
#	43887
#	56628
#	70379
#	86083
#	99376
#	113027
#	127158
#	144200
#
# Disc length: 2109 seconds
#
# Revision: 2
# Processed by: cddbd v1.5.2PL0 Copyright (c) Steve Scherf et al.
# Submitted via: CDex 1.51
#
DISCID=8f083b0b
DTITLE=Thelonious Monk - Vol.04 - Four In One  (Alternate Take)
DYEAR=1900
DGENRE=Jazz
TTITLE0=Four In One  (Alternate Take)
TTITLE1=Ask Me Now
TTITLE2=Criss Cross
TTITLE3=Criss Cross  (Alternate Take)
TTITLE4=Eronel
TTITLE5=Four In One
TTITLE6=Straight No Chaser
TTITLE7=Willow Weep For Me
TTITLE8=Hornin' In
TTITLE9=Let's Cool One
TTITLE10=Skippy  (Alternate Take)
EXTD=
EXTT0=
EXTT1=
EXTT2=
EXTT3=
EXTT4=
EXTT5=
EXTT6=
EXTT7=
EXTT8=
EXTT9=
EXTT10=
PLAYORDER=
